<mxfile host="Electron" modified="2024-06-13T13:23:21.983Z" agent="Mozilla/5.0 (Macintosh; Intel Mac OS X 10_15_7) AppleWebKit/537.36 (KHTML, like Gecko) draw.io/24.4.13 Chrome/124.0.6367.207 Electron/30.0.6 Safari/537.36" etag="1iPegdUfE8B4NRHiqUAq" version="24.4.13" type="device" pages="4">
  <diagram id="Rfz-nHKzfFXtIfp8jGCo" name="main">
    <mxGraphModel dx="1100" dy="713" grid="1" gridSize="10" guides="1" tooltips="1" connect="1" arrows="1" fold="1" page="1" pageScale="1" pageWidth="850" pageHeight="1100" math="0" shadow="0">
      <root>
        <mxCell id="0" />
        <mxCell id="1" parent="0" />
        <mxCell id="_-YTuwWALcvk040Sg-yM-5" value="" style="rhombus;whiteSpace=wrap;html=1;rounded=1;fontStyle=1;glass=0;sketch=0;fontSize=12;points=[[0,0.5,0,0,0],[0.5,0,0,0,0],[0.5,1,0,0,0],[1,0.5,0,0,0]];shadow=1;fontFamily=Helvetica;fontColor=default;" parent="1" vertex="1">
          <mxGeometry x="20" y="140" width="40" height="40" as="geometry" />
        </mxCell>
        <mxCell id="_-YTuwWALcvk040Sg-yM-6" value="" style="rhombus;whiteSpace=wrap;html=1;rounded=1;fontStyle=1;glass=0;sketch=0;fontSize=12;points=[[0,0.5,0,0,0],[0.5,0,0,0,0],[0.5,1,0,0,0],[1,0.5,0,0,0]];shadow=1;fillColor=#0050ef;fontColor=#ffffff;strokeColor=#001DBC;fontFamily=Helvetica;" parent="1" vertex="1">
          <mxGeometry x="1080" y="100" width="40" height="40" as="geometry" />
        </mxCell>
        <mxCell id="_-YTuwWALcvk040Sg-yM-7" value="✗" style="rhombus;whiteSpace=wrap;html=1;rounded=1;fillColor=#0050ef;fontColor=#ffffff;strokeColor=#001DBC;fontStyle=1;glass=0;sketch=0;fontSize=12;points=[[0,0.5,0,0,0],[0.5,0,0,0,0],[0.5,1,0,0,0],[1,0.5,0,0,0]];shadow=1;opacity=30;textOpacity=30;" parent="1" vertex="1">
          <mxGeometry x="1080" y="260" width="40" height="40" as="geometry" />
        </mxCell>
        <mxCell id="VGZLOjveox1qzQNJpgzl-1" value="Read Text File" style="rounded=1;whiteSpace=wrap;html=1;sketch=0;container=1;recursiveResize=0;verticalAlign=top;arcSize=6;fontStyle=1;autosize=0;points=[];absoluteArcSize=1;shadow=1;strokeColor=#001DBC;fillColor=#0050ef;fontColor=#ffffff;fontFamily=Helvetica;fontSize=11;" parent="1" vertex="1">
          <mxGeometry x="130" y="120" width="130" height="110" as="geometry">
            <mxRectangle x="-98" y="-1230" width="99" height="26" as="alternateBounds" />
          </mxGeometry>
        </mxCell>
        <mxCell id="VGZLOjveox1qzQNJpgzl-2" value="" style="rounded=1;whiteSpace=wrap;html=1;sketch=0;points=[[0,0.5,0,0,0],[1,0.5,0,0,0]];arcSize=50;fontFamily=Helvetica;fontSize=11;fontColor=default;" parent="VGZLOjveox1qzQNJpgzl-1" vertex="1">
          <mxGeometry x="-10" y="27.5" width="39.25" height="25" as="geometry" />
        </mxCell>
        <mxCell id="VGZLOjveox1qzQNJpgzl-3" value="" style="rounded=1;whiteSpace=wrap;html=1;sketch=0;points=[[0,0.5,0,0,0],[1,0.5,0,0,0]];fillColor=#1ba1e2;fontColor=#ffffff;strokeColor=#006EAF;arcSize=50;fontFamily=Helvetica;fontSize=11;" parent="VGZLOjveox1qzQNJpgzl-1" vertex="1">
          <mxGeometry x="110" y="27.5" width="35.25" height="25" as="geometry" />
        </mxCell>
        <mxCell id="VGZLOjveox1qzQNJpgzl-4" value="✗" style="rounded=1;whiteSpace=wrap;html=1;sketch=0;points=[[0,0.5,0,0,0],[1,0.5,0,0,0]];fillColor=#1ba1e2;fontColor=#ffffff;strokeColor=#006EAF;arcSize=50;fontFamily=Helvetica;fontSize=11;textOpacity=30;opacity=30;" parent="VGZLOjveox1qzQNJpgzl-1" vertex="1">
          <mxGeometry x="110" y="67.5" width="35.25" height="25" as="geometry" />
        </mxCell>
        <mxCell id="VGZLOjveox1qzQNJpgzl-5" style="edgeStyle=orthogonalEdgeStyle;rounded=0;orthogonalLoop=1;jettySize=auto;html=1;exitX=1;exitY=0.5;exitDx=0;exitDy=0;exitPerimeter=0;entryX=0;entryY=0.5;entryDx=0;entryDy=0;entryPerimeter=0;strokeWidth=2;" parent="1" source="_-YTuwWALcvk040Sg-yM-5" target="VGZLOjveox1qzQNJpgzl-2" edge="1">
          <mxGeometry relative="1" as="geometry" />
        </mxCell>
        <mxCell id="VGZLOjveox1qzQNJpgzl-6" style="edgeStyle=orthogonalEdgeStyle;rounded=0;orthogonalLoop=1;jettySize=auto;html=1;exitX=1;exitY=0.5;exitDx=0;exitDy=0;exitPerimeter=0;strokeWidth=2;entryX=0;entryY=0.5;entryDx=0;entryDy=0;entryPerimeter=0;" parent="1" source="VGZLOjveox1qzQNJpgzl-3" target="vm1DhKUlVvrYD79F8-_r-6" edge="1">
          <mxGeometry relative="1" as="geometry">
            <mxPoint x="323.25" y="160" as="targetPoint" />
          </mxGeometry>
        </mxCell>
        <mxCell id="VGZLOjveox1qzQNJpgzl-7" style="edgeStyle=orthogonalEdgeStyle;rounded=1;orthogonalLoop=1;jettySize=auto;html=1;exitX=1;exitY=0.5;exitDx=0;exitDy=0;exitPerimeter=0;entryX=0;entryY=0.5;entryDx=0;entryDy=0;entryPerimeter=0;curved=0;opacity=30;" parent="1" source="VGZLOjveox1qzQNJpgzl-4" target="_-YTuwWALcvk040Sg-yM-7" edge="1">
          <mxGeometry relative="1" as="geometry">
            <Array as="points">
              <mxPoint x="300" y="200" />
              <mxPoint x="300" y="280" />
            </Array>
          </mxGeometry>
        </mxCell>
        <mxCell id="vm1DhKUlVvrYD79F8-_r-1" value="Bracket Keywords" style="rounded=1;whiteSpace=wrap;sketch=0;container=1;recursiveResize=0;verticalAlign=top;arcSize=6;fontStyle=1;autosize=0;points=[];absoluteArcSize=1;shadow=1;strokeColor=#001DBC;fillColor=#0050ef;fontColor=#ffffff;fontFamily=Helvetica;fontSize=11;labelBackgroundColor=none;" parent="1" vertex="1">
          <mxGeometry x="610" y="120" width="130" height="110" as="geometry">
            <mxRectangle x="-98" y="-1230" width="99" height="26" as="alternateBounds" />
          </mxGeometry>
        </mxCell>
        <mxCell id="vm1DhKUlVvrYD79F8-_r-2" value="" style="rounded=1;whiteSpace=wrap;sketch=0;points=[[0,0.5,0,0,0],[1,0.5,0,0,0]];arcSize=50;fontFamily=Helvetica;fontSize=11;fontColor=default;labelBackgroundColor=none;" parent="vm1DhKUlVvrYD79F8-_r-1" vertex="1">
          <mxGeometry x="-10" y="27.5" width="39.25" height="25" as="geometry" />
        </mxCell>
        <mxCell id="vm1DhKUlVvrYD79F8-_r-3" value="" style="rounded=1;whiteSpace=wrap;sketch=0;points=[[0,0.5,0,0,0],[1,0.5,0,0,0]];fillColor=#1ba1e2;fontColor=#ffffff;strokeColor=#006EAF;arcSize=50;fontFamily=Helvetica;fontSize=11;labelBackgroundColor=none;" parent="vm1DhKUlVvrYD79F8-_r-1" vertex="1">
          <mxGeometry x="110" y="27.5" width="35.25" height="25" as="geometry" />
        </mxCell>
        <mxCell id="vm1DhKUlVvrYD79F8-_r-4" value="✗" style="rounded=1;whiteSpace=wrap;sketch=0;points=[[0,0.5,0,0,0],[1,0.5,0,0,0]];fillColor=#1ba1e2;fontColor=#ffffff;strokeColor=#006EAF;arcSize=50;fontFamily=Helvetica;fontSize=11;textOpacity=30;opacity=30;labelBackgroundColor=none;" parent="vm1DhKUlVvrYD79F8-_r-1" vertex="1">
          <mxGeometry x="110" y="67.5" width="35.25" height="25" as="geometry" />
        </mxCell>
        <mxCell id="vm1DhKUlVvrYD79F8-_r-5" value="Escape Whitespace" style="rounded=1;whiteSpace=wrap;sketch=0;container=1;recursiveResize=0;verticalAlign=top;arcSize=6;fontStyle=1;autosize=0;points=[];absoluteArcSize=1;shadow=1;strokeColor=#001DBC;fillColor=#0050ef;fontColor=#ffffff;fontFamily=Helvetica;fontSize=11;labelBackgroundColor=none;" parent="1" vertex="1">
          <mxGeometry x="360" y="120" width="130" height="110" as="geometry">
            <mxRectangle x="-98" y="-1230" width="99" height="26" as="alternateBounds" />
          </mxGeometry>
        </mxCell>
        <mxCell id="vm1DhKUlVvrYD79F8-_r-6" value="" style="rounded=1;whiteSpace=wrap;sketch=0;points=[[0,0.5,0,0,0],[1,0.5,0,0,0]];arcSize=50;fontFamily=Helvetica;fontSize=11;fontColor=default;labelBackgroundColor=none;" parent="vm1DhKUlVvrYD79F8-_r-5" vertex="1">
          <mxGeometry x="-10" y="27.5" width="39.25" height="25" as="geometry" />
        </mxCell>
        <mxCell id="vm1DhKUlVvrYD79F8-_r-7" value="" style="rounded=1;whiteSpace=wrap;sketch=0;points=[[0,0.5,0,0,0],[1,0.5,0,0,0]];fillColor=#1ba1e2;fontColor=#ffffff;strokeColor=#006EAF;arcSize=50;fontFamily=Helvetica;fontSize=11;labelBackgroundColor=none;" parent="vm1DhKUlVvrYD79F8-_r-5" vertex="1">
          <mxGeometry x="110" y="27.5" width="35.25" height="25" as="geometry" />
        </mxCell>
        <mxCell id="vm1DhKUlVvrYD79F8-_r-8" value="✗" style="rounded=1;whiteSpace=wrap;sketch=0;points=[[0,0.5,0,0,0],[1,0.5,0,0,0]];fillColor=#1ba1e2;fontColor=#ffffff;strokeColor=#006EAF;arcSize=50;fontFamily=Helvetica;fontSize=11;textOpacity=30;opacity=30;labelBackgroundColor=none;" parent="vm1DhKUlVvrYD79F8-_r-5" vertex="1">
          <mxGeometry x="110" y="67.5" width="35.25" height="25" as="geometry" />
        </mxCell>
        <mxCell id="vm1DhKUlVvrYD79F8-_r-9" value="" style="edgeStyle=orthogonalEdgeStyle;curved=0;rounded=1;orthogonalLoop=1;jettySize=auto;exitX=1;exitY=0.5;exitDx=0;exitDy=0;exitPerimeter=0;entryX=0;entryY=0.5;entryDx=0;entryDy=0;entryPerimeter=0;strokeColor=default;strokeWidth=2;align=center;verticalAlign=middle;fontFamily=Helvetica;fontSize=11;fontColor=default;labelBackgroundColor=default;endArrow=classic;" parent="1" source="vm1DhKUlVvrYD79F8-_r-7" target="vm1DhKUlVvrYD79F8-_r-2" edge="1">
          <mxGeometry relative="1" as="geometry">
            <Array as="points">
              <mxPoint x="540" y="160" />
              <mxPoint x="540" y="160" />
            </Array>
          </mxGeometry>
        </mxCell>
        <mxCell id="vm1DhKUlVvrYD79F8-_r-10" value="Common Lisp" style="rounded=1;whiteSpace=wrap;sketch=0;container=1;recursiveResize=0;verticalAlign=top;arcSize=6;fontStyle=1;autosize=0;points=[];absoluteArcSize=1;shadow=1;strokeColor=#001DBC;fillColor=#0050ef;fontColor=#ffffff;fontFamily=Helvetica;fontSize=11;labelBackgroundColor=none;" parent="1" vertex="1">
          <mxGeometry x="840" y="80" width="130" height="150" as="geometry">
            <mxRectangle x="-98" y="-1230" width="99" height="26" as="alternateBounds" />
          </mxGeometry>
        </mxCell>
        <mxCell id="vm1DhKUlVvrYD79F8-_r-11" value="" style="rounded=1;whiteSpace=wrap;sketch=0;points=[[0,0.5,0,0,0],[1,0.5,0,0,0]];arcSize=50;fontFamily=Helvetica;fontSize=11;fontColor=default;labelBackgroundColor=none;" parent="vm1DhKUlVvrYD79F8-_r-10" vertex="1">
          <mxGeometry x="-10" y="67.5" width="39.25" height="25" as="geometry" />
        </mxCell>
        <mxCell id="vm1DhKUlVvrYD79F8-_r-12" value="" style="rounded=1;whiteSpace=wrap;sketch=0;points=[[0,0.5,0,0,0],[1,0.5,0,0,0]];fillColor=#1ba1e2;fontColor=#ffffff;strokeColor=#006EAF;arcSize=50;fontFamily=Helvetica;fontSize=11;labelBackgroundColor=none;" parent="vm1DhKUlVvrYD79F8-_r-10" vertex="1">
          <mxGeometry x="110" y="27.5" width="35.25" height="25" as="geometry" />
        </mxCell>
        <mxCell id="vm1DhKUlVvrYD79F8-_r-13" value="✗" style="rounded=1;whiteSpace=wrap;sketch=0;points=[[0,0.5,0,0,0],[1,0.5,0,0,0]];fillColor=#1ba1e2;fontColor=#ffffff;strokeColor=#006EAF;arcSize=50;fontFamily=Helvetica;fontSize=11;textOpacity=30;opacity=30;labelBackgroundColor=none;" parent="vm1DhKUlVvrYD79F8-_r-10" vertex="1">
          <mxGeometry x="110" y="67.5" width="35.25" height="25" as="geometry" />
        </mxCell>
        <mxCell id="qLvhZDgHwEth-9ihAYNM-1" value="grammar" style="rounded=1;whiteSpace=wrap;sketch=0;points=[[0,0.5,0,0,0],[1,0.5,0,0,0]];arcSize=50;fontFamily=Helvetica;fontSize=11;fontColor=default;labelBackgroundColor=none;" parent="vm1DhKUlVvrYD79F8-_r-10" vertex="1">
          <mxGeometry x="-10" y="27.5" width="39.25" height="25" as="geometry" />
        </mxCell>
        <mxCell id="vm1DhKUlVvrYD79F8-_r-14" style="edgeStyle=orthogonalEdgeStyle;rounded=0;orthogonalLoop=1;jettySize=auto;html=1;entryX=0;entryY=0.5;entryDx=0;entryDy=0;entryPerimeter=0;strokeWidth=2;" parent="1" source="vm1DhKUlVvrYD79F8-_r-3" target="vm1DhKUlVvrYD79F8-_r-11" edge="1">
          <mxGeometry relative="1" as="geometry" />
        </mxCell>
        <mxCell id="vm1DhKUlVvrYD79F8-_r-15" style="edgeStyle=orthogonalEdgeStyle;rounded=1;orthogonalLoop=1;jettySize=auto;html=1;exitX=1;exitY=0.5;exitDx=0;exitDy=0;exitPerimeter=0;entryX=0;entryY=0.5;entryDx=0;entryDy=0;entryPerimeter=0;strokeWidth=2;curved=0;" parent="1" source="vm1DhKUlVvrYD79F8-_r-12" target="_-YTuwWALcvk040Sg-yM-6" edge="1">
          <mxGeometry relative="1" as="geometry" />
        </mxCell>
        <mxCell id="vm1DhKUlVvrYD79F8-_r-16" style="edgeStyle=orthogonalEdgeStyle;rounded=1;orthogonalLoop=1;jettySize=auto;html=1;exitX=1;exitY=0.5;exitDx=0;exitDy=0;exitPerimeter=0;entryX=0;entryY=0.5;entryDx=0;entryDy=0;entryPerimeter=0;curved=0;opacity=30;" parent="1" source="vm1DhKUlVvrYD79F8-_r-13" target="_-YTuwWALcvk040Sg-yM-7" edge="1">
          <mxGeometry relative="1" as="geometry" />
        </mxCell>
        <mxCell id="vm1DhKUlVvrYD79F8-_r-17" style="edgeStyle=orthogonalEdgeStyle;curved=0;rounded=1;orthogonalLoop=1;jettySize=auto;html=1;exitX=1;exitY=0.5;exitDx=0;exitDy=0;exitPerimeter=0;entryX=0;entryY=0.5;entryDx=0;entryDy=0;entryPerimeter=0;opacity=30;strokeColor=default;align=center;verticalAlign=middle;fontFamily=Helvetica;fontSize=11;fontColor=default;labelBackgroundColor=default;endArrow=classic;" parent="1" source="vm1DhKUlVvrYD79F8-_r-4" target="_-YTuwWALcvk040Sg-yM-7" edge="1">
          <mxGeometry relative="1" as="geometry">
            <Array as="points">
              <mxPoint x="800" y="200" />
              <mxPoint x="800" y="280" />
            </Array>
          </mxGeometry>
        </mxCell>
        <mxCell id="vm1DhKUlVvrYD79F8-_r-18" style="edgeStyle=orthogonalEdgeStyle;curved=0;rounded=1;orthogonalLoop=1;jettySize=auto;html=1;exitX=1;exitY=0.5;exitDx=0;exitDy=0;exitPerimeter=0;opacity=30;strokeColor=default;align=center;verticalAlign=middle;fontFamily=Helvetica;fontSize=11;fontColor=default;labelBackgroundColor=default;endArrow=classic;entryX=0;entryY=0.5;entryDx=0;entryDy=0;entryPerimeter=0;" parent="1" source="vm1DhKUlVvrYD79F8-_r-8" target="_-YTuwWALcvk040Sg-yM-7" edge="1">
          <mxGeometry relative="1" as="geometry">
            <Array as="points">
              <mxPoint x="540" y="200" />
              <mxPoint x="540" y="280" />
            </Array>
          </mxGeometry>
        </mxCell>
        <mxCell id="qLvhZDgHwEth-9ihAYNM-2" value="grammar" style="rhombus;whiteSpace=wrap;html=1;rounded=1;fontStyle=1;glass=0;sketch=0;fontSize=12;points=[[0,0.5,0,0,0],[0.5,0,0,0,0],[0.5,1,0,0,0],[1,0.5,0,0,0]];shadow=1;fontFamily=Helvetica;fontColor=default;" parent="1" vertex="1">
          <mxGeometry x="20" y="60" width="40" height="40" as="geometry" />
        </mxCell>
        <mxCell id="qLvhZDgHwEth-9ihAYNM-3" style="edgeStyle=orthogonalEdgeStyle;curved=0;rounded=1;orthogonalLoop=1;jettySize=auto;html=1;exitX=1;exitY=0.5;exitDx=0;exitDy=0;exitPerimeter=0;entryX=0;entryY=0.5;entryDx=0;entryDy=0;entryPerimeter=0;strokeColor=default;align=center;verticalAlign=middle;fontFamily=Helvetica;fontSize=11;fontColor=default;labelBackgroundColor=default;endArrow=classic;strokeWidth=2;" parent="1" source="qLvhZDgHwEth-9ihAYNM-2" target="qLvhZDgHwEth-9ihAYNM-1" edge="1">
          <mxGeometry relative="1" as="geometry">
            <Array as="points">
              <mxPoint x="790" y="80" />
              <mxPoint x="790" y="120" />
            </Array>
          </mxGeometry>
        </mxCell>
      </root>
    </mxGraphModel>
  </diagram>
  <diagram id="MY5c2bkPUp3f2JY8gIn_" name="Escape Whitespace">
    <mxGraphModel dx="1100" dy="713" grid="1" gridSize="10" guides="1" tooltips="1" connect="1" arrows="1" fold="1" page="1" pageScale="1" pageWidth="850" pageHeight="1100" math="0" shadow="0">
      <root>
        <mxCell id="0" />
        <mxCell id="1" parent="0" />
        <mxCell id="pbNWXzmvPmpZmjkabeOm-1" value="Transpile" style="rounded=1;whiteSpace=wrap;sketch=0;container=1;recursiveResize=0;verticalAlign=top;arcSize=6;fontStyle=1;autosize=0;points=[];absoluteArcSize=1;shadow=1;strokeColor=#001DBC;fillColor=#0050ef;fontColor=#ffffff;fontFamily=Helvetica;fontSize=11;" vertex="1" parent="1">
          <mxGeometry x="500" y="220" width="130" height="210" as="geometry">
            <mxRectangle x="-98" y="-1230" width="99" height="26" as="alternateBounds" />
          </mxGeometry>
        </mxCell>
        <mxCell id="pbNWXzmvPmpZmjkabeOm-2" value="ohmfn" style="rounded=1;whiteSpace=wrap;sketch=0;points=[[0,0.5,0,0,0],[1,0.5,0,0,0]];arcSize=50;fontFamily=Helvetica;fontSize=11;fontColor=default;fontStyle=0" vertex="1" parent="pbNWXzmvPmpZmjkabeOm-1">
          <mxGeometry x="-17" y="57.5" width="66" height="25" as="geometry" />
        </mxCell>
        <mxCell id="pbNWXzmvPmpZmjkabeOm-3" value="" style="rounded=1;whiteSpace=wrap;sketch=0;points=[[0,0.5,0,0,0],[1,0.5,0,0,0]];fillColor=#1ba1e2;fontColor=#ffffff;strokeColor=#006EAF;arcSize=50;fontFamily=Helvetica;fontSize=11;" vertex="1" parent="pbNWXzmvPmpZmjkabeOm-1">
          <mxGeometry x="100" y="27.5" width="35.25" height="25" as="geometry" />
        </mxCell>
        <mxCell id="pbNWXzmvPmpZmjkabeOm-4" value="✗" style="rounded=1;whiteSpace=wrap;sketch=0;points=[[0,0.5,0,0,0],[1,0.5,0,0,0]];fillColor=#1ba1e2;fontColor=#ffffff;strokeColor=#006EAF;arcSize=50;fontFamily=Helvetica;fontSize=11;textOpacity=30;" vertex="1" parent="pbNWXzmvPmpZmjkabeOm-1">
          <mxGeometry x="100" y="67.5" width="35.25" height="25" as="geometry" />
        </mxCell>
        <mxCell id="pbNWXzmvPmpZmjkabeOm-5" value="rwrfn" style="rounded=1;whiteSpace=wrap;sketch=0;points=[[0,0.5,0,0,0],[1,0.5,0,0,0]];arcSize=50;fontFamily=Helvetica;fontSize=11;fontColor=default;" vertex="1" parent="pbNWXzmvPmpZmjkabeOm-1">
          <mxGeometry x="-17" y="92.5" width="66" height="25" as="geometry" />
        </mxCell>
        <mxCell id="pbNWXzmvPmpZmjkabeOm-6" value="input" style="rounded=1;whiteSpace=wrap;sketch=0;points=[[0,0.5,0,0,0],[1,0.5,0,0,0]];arcSize=50;fontFamily=Helvetica;fontSize=11;fontColor=default;" vertex="1" parent="pbNWXzmvPmpZmjkabeOm-1">
          <mxGeometry x="-17" y="167.5" width="66" height="25" as="geometry" />
        </mxCell>
        <mxCell id="pbNWXzmvPmpZmjkabeOm-7" value="grammar name" style="rounded=1;whiteSpace=wrap;sketch=0;points=[[0,0.5,0,0,0],[1,0.5,0,0,0]];arcSize=50;fontFamily=Helvetica;fontSize=11;fontColor=default;" vertex="1" parent="pbNWXzmvPmpZmjkabeOm-1">
          <mxGeometry x="-16" y="27.5" width="66" height="25" as="geometry" />
        </mxCell>
        <mxCell id="pbNWXzmvPmpZmjkabeOm-8" value="rwrsupportfn" style="rounded=1;whiteSpace=wrap;sketch=0;points=[[0,0.5,0,0,0],[1,0.5,0,0,0]];arcSize=50;fontFamily=Helvetica;fontSize=11;fontColor=default;" vertex="1" parent="pbNWXzmvPmpZmjkabeOm-1">
          <mxGeometry x="-17" y="127.5" width="66" height="25" as="geometry" />
        </mxCell>
        <mxCell id="pbNWXzmvPmpZmjkabeOm-9" value="" style="edgeStyle=orthogonalEdgeStyle;shape=connector;rounded=1;jumpStyle=arc;orthogonalLoop=1;jettySize=auto;exitX=1;exitY=0.5;exitDx=0;exitDy=0;exitPerimeter=0;entryX=0;entryY=0.5;entryDx=0;entryDy=0;entryPerimeter=0;labelBackgroundColor=default;strokeColor=#666666;strokeWidth=2;fontFamily=Helvetica;fontSize=11;fontColor=default;endArrow=classic;fillColor=#f5f5f5;opacity=90;" edge="1" parent="1" source="pbNWXzmvPmpZmjkabeOm-3" target="pbNWXzmvPmpZmjkabeOm-28">
          <mxGeometry relative="1" as="geometry">
            <mxPoint x="750" y="260" as="targetPoint" />
          </mxGeometry>
        </mxCell>
        <mxCell id="pbNWXzmvPmpZmjkabeOm-10" value="" style="edgeStyle=orthogonalEdgeStyle;shape=connector;rounded=1;jumpStyle=arc;orthogonalLoop=1;jettySize=auto;exitX=1;exitY=0.5;exitDx=0;exitDy=0;exitPerimeter=0;entryX=0;entryY=0.5;entryDx=0;entryDy=0;entryPerimeter=0;labelBackgroundColor=default;strokeColor=#666666;strokeWidth=1;fontFamily=Helvetica;fontSize=11;fontColor=default;endArrow=classic;fillColor=#f5f5f5;opacity=90;" edge="1" parent="1" source="pbNWXzmvPmpZmjkabeOm-4" target="pbNWXzmvPmpZmjkabeOm-29">
          <mxGeometry relative="1" as="geometry">
            <mxPoint x="750" y="440" as="targetPoint" />
          </mxGeometry>
        </mxCell>
        <mxCell id="pbNWXzmvPmpZmjkabeOm-11" value="&#39;Escapes" style="rounded=1;whiteSpace=wrap;sketch=0;container=1;recursiveResize=0;verticalAlign=middle;arcSize=6;fontStyle=1;autosize=0;points=[];absoluteArcSize=1;shadow=0;strokeColor=#6c8ebf;fillColor=#dae8fc;fontFamily=Helvetica;fontSize=11;gradientColor=#E6E6E6;" vertex="1" parent="1">
          <mxGeometry x="220" y="250" width="110" height="20" as="geometry">
            <mxRectangle x="-98" y="-1230" width="99" height="26" as="alternateBounds" />
          </mxGeometry>
        </mxCell>
        <mxCell id="pbNWXzmvPmpZmjkabeOm-12" value="" style="rounded=1;whiteSpace=wrap;sketch=0;points=[[0,0.5,0,0,0],[1,0.5,0,0,0]];arcSize=50;fontFamily=Helvetica;fontSize=11;fontColor=default;" vertex="1" parent="pbNWXzmvPmpZmjkabeOm-11">
          <mxGeometry x="100" y="3.75" width="20" height="12.5" as="geometry" />
        </mxCell>
        <mxCell id="pbNWXzmvPmpZmjkabeOm-13" value="" style="rounded=1;whiteSpace=wrap;sketch=0;points=[[0,0.5,0,0,0],[1,0.5,0,0,0]];arcSize=50;fontFamily=Helvetica;fontSize=11;fontColor=default;" vertex="1" parent="pbNWXzmvPmpZmjkabeOm-11">
          <mxGeometry x="-10" y="3.75" width="20" height="12.5" as="geometry" />
        </mxCell>
        <mxCell id="pbNWXzmvPmpZmjkabeOm-14" value="&#39;escapessupport.js" style="rounded=1;whiteSpace=wrap;sketch=0;container=1;recursiveResize=0;verticalAlign=middle;arcSize=6;fontStyle=1;autosize=0;points=[];absoluteArcSize=1;shadow=0;strokeColor=#6c8ebf;fillColor=#dae8fc;fontFamily=Helvetica;fontSize=11;gradientColor=#E6E6E6;" vertex="1" parent="1">
          <mxGeometry x="210" y="350" width="200" height="20" as="geometry">
            <mxRectangle x="-98" y="-1230" width="99" height="26" as="alternateBounds" />
          </mxGeometry>
        </mxCell>
        <mxCell id="pbNWXzmvPmpZmjkabeOm-15" value="" style="rounded=1;whiteSpace=wrap;sketch=0;points=[[0,0.5,0,0,0],[1,0.5,0,0,0]];arcSize=50;fontFamily=Helvetica;fontSize=11;fontColor=default;" vertex="1" parent="pbNWXzmvPmpZmjkabeOm-14">
          <mxGeometry x="190" y="3.75" width="20" height="12.5" as="geometry" />
        </mxCell>
        <mxCell id="pbNWXzmvPmpZmjkabeOm-16" value="" style="rounded=1;whiteSpace=wrap;sketch=0;points=[[0,0.5,0,0,0],[1,0.5,0,0,0]];arcSize=50;fontFamily=Helvetica;fontSize=11;fontColor=default;" vertex="1" parent="pbNWXzmvPmpZmjkabeOm-14">
          <mxGeometry x="-10" y="3.75" width="20" height="12.5" as="geometry" />
        </mxCell>
        <mxCell id="pbNWXzmvPmpZmjkabeOm-17" value="" style="edgeStyle=orthogonalEdgeStyle;shape=connector;rounded=1;orthogonalLoop=1;jettySize=auto;entryX=0;entryY=0.5;entryDx=0;entryDy=0;entryPerimeter=0;labelBackgroundColor=default;strokeColor=default;strokeWidth=2;align=center;verticalAlign=middle;fontFamily=Helvetica;fontSize=11;fontColor=default;endArrow=classic;" edge="1" parent="1" source="pbNWXzmvPmpZmjkabeOm-15" target="pbNWXzmvPmpZmjkabeOm-8">
          <mxGeometry relative="1" as="geometry" />
        </mxCell>
        <mxCell id="pbNWXzmvPmpZmjkabeOm-18" value="&#39;escapes.ohm" style="rounded=1;whiteSpace=wrap;sketch=0;container=1;recursiveResize=0;verticalAlign=middle;arcSize=6;fontStyle=1;autosize=0;points=[];absoluteArcSize=1;shadow=0;strokeColor=#6c8ebf;fillColor=#dae8fc;fontFamily=Helvetica;fontSize=11;gradientColor=#E6E6E6;" vertex="1" parent="1">
          <mxGeometry x="210" y="280" width="200" height="20" as="geometry">
            <mxRectangle x="-98" y="-1230" width="99" height="26" as="alternateBounds" />
          </mxGeometry>
        </mxCell>
        <mxCell id="pbNWXzmvPmpZmjkabeOm-19" value="" style="rounded=1;whiteSpace=wrap;sketch=0;points=[[0,0.5,0,0,0],[1,0.5,0,0,0]];arcSize=50;fontFamily=Helvetica;fontSize=11;fontColor=default;" vertex="1" parent="pbNWXzmvPmpZmjkabeOm-18">
          <mxGeometry x="190" y="3.75" width="20" height="12.5" as="geometry" />
        </mxCell>
        <mxCell id="pbNWXzmvPmpZmjkabeOm-20" value="" style="rounded=1;whiteSpace=wrap;sketch=0;points=[[0,0.5,0,0,0],[1,0.5,0,0,0]];arcSize=50;fontFamily=Helvetica;fontSize=11;fontColor=default;" vertex="1" parent="pbNWXzmvPmpZmjkabeOm-18">
          <mxGeometry x="-10" y="3.75" width="20" height="12.5" as="geometry" />
        </mxCell>
        <mxCell id="pbNWXzmvPmpZmjkabeOm-21" value="" style="edgeStyle=orthogonalEdgeStyle;shape=connector;rounded=1;orthogonalLoop=1;jettySize=auto;exitX=1;exitY=0.5;exitDx=0;exitDy=0;exitPerimeter=0;entryX=0;entryY=0.5;entryDx=0;entryDy=0;entryPerimeter=0;labelBackgroundColor=default;strokeColor=default;strokeWidth=2;align=center;verticalAlign=middle;fontFamily=Helvetica;fontSize=11;fontColor=default;endArrow=classic;" edge="1" parent="1" source="pbNWXzmvPmpZmjkabeOm-19" target="pbNWXzmvPmpZmjkabeOm-2">
          <mxGeometry relative="1" as="geometry">
            <Array as="points">
              <mxPoint x="450" y="290" />
              <mxPoint x="450" y="290" />
            </Array>
          </mxGeometry>
        </mxCell>
        <mxCell id="pbNWXzmvPmpZmjkabeOm-22" value="&#39;escapes.rwr" style="rounded=1;whiteSpace=wrap;sketch=0;container=1;recursiveResize=0;verticalAlign=middle;arcSize=6;fontStyle=1;autosize=0;points=[];absoluteArcSize=1;shadow=0;strokeColor=#6c8ebf;fillColor=#dae8fc;fontFamily=Helvetica;fontSize=11;gradientColor=#E6E6E6;" vertex="1" parent="1">
          <mxGeometry x="210" y="315" width="200" height="20" as="geometry">
            <mxRectangle x="-98" y="-1230" width="99" height="26" as="alternateBounds" />
          </mxGeometry>
        </mxCell>
        <mxCell id="pbNWXzmvPmpZmjkabeOm-23" value="" style="rounded=1;whiteSpace=wrap;sketch=0;points=[[0,0.5,0,0,0],[1,0.5,0,0,0]];arcSize=50;fontFamily=Helvetica;fontSize=11;fontColor=default;" vertex="1" parent="pbNWXzmvPmpZmjkabeOm-22">
          <mxGeometry x="190" y="3.75" width="20" height="12.5" as="geometry" />
        </mxCell>
        <mxCell id="pbNWXzmvPmpZmjkabeOm-24" value="" style="rounded=1;whiteSpace=wrap;sketch=0;points=[[0,0.5,0,0,0],[1,0.5,0,0,0]];arcSize=50;fontFamily=Helvetica;fontSize=11;fontColor=default;" vertex="1" parent="pbNWXzmvPmpZmjkabeOm-22">
          <mxGeometry x="-10" y="3.75" width="20" height="12.5" as="geometry" />
        </mxCell>
        <mxCell id="pbNWXzmvPmpZmjkabeOm-25" value="" style="edgeStyle=orthogonalEdgeStyle;shape=connector;rounded=1;orthogonalLoop=1;jettySize=auto;labelBackgroundColor=default;strokeColor=default;strokeWidth=2;align=center;verticalAlign=middle;fontFamily=Helvetica;fontSize=11;fontColor=default;endArrow=classic;" edge="1" parent="1" source="pbNWXzmvPmpZmjkabeOm-23" target="pbNWXzmvPmpZmjkabeOm-5">
          <mxGeometry relative="1" as="geometry" />
        </mxCell>
        <mxCell id="pbNWXzmvPmpZmjkabeOm-26" value="" style="edgeStyle=orthogonalEdgeStyle;shape=connector;rounded=1;orthogonalLoop=1;jettySize=auto;exitX=1;exitY=0.5;exitDx=0;exitDy=0;exitPerimeter=0;entryX=0;entryY=0.5;entryDx=0;entryDy=0;entryPerimeter=0;labelBackgroundColor=default;strokeColor=default;strokeWidth=2;align=center;verticalAlign=middle;fontFamily=Helvetica;fontSize=11;fontColor=default;endArrow=classic;" edge="1" parent="1" source="pbNWXzmvPmpZmjkabeOm-12" target="pbNWXzmvPmpZmjkabeOm-7">
          <mxGeometry relative="1" as="geometry" />
        </mxCell>
        <mxCell id="pbNWXzmvPmpZmjkabeOm-27" value="" style="rhombus;whiteSpace=wrap;rounded=1;fontStyle=1;glass=0;sketch=0;fontSize=12;points=[[0,0.5,0,0,0],[0.5,0,0,0,0],[0.5,1,0,0,0],[1,0.5,0,0,0]];shadow=1;fontFamily=Helvetica;fontColor=default;labelBackgroundColor=none;" vertex="1" parent="1">
          <mxGeometry x="60" y="380" width="40" height="40" as="geometry" />
        </mxCell>
        <mxCell id="pbNWXzmvPmpZmjkabeOm-28" value="" style="rhombus;whiteSpace=wrap;rounded=1;fontStyle=1;glass=0;sketch=0;fontSize=12;points=[[0,0.5,0,0,0],[0.5,0,0,0,0],[0.5,1,0,0,0],[1,0.5,0,0,0]];shadow=1;fillColor=#0050ef;fontColor=#ffffff;strokeColor=#001DBC;fontFamily=Helvetica;labelBackgroundColor=none;" vertex="1" parent="1">
          <mxGeometry x="720" y="240" width="40" height="40" as="geometry" />
        </mxCell>
        <mxCell id="pbNWXzmvPmpZmjkabeOm-29" value="✗" style="rhombus;whiteSpace=wrap;rounded=1;fillColor=#0050ef;fontColor=#ffffff;strokeColor=#001DBC;fontStyle=1;glass=0;sketch=0;fontSize=12;points=[[0,0.5,0,0,0],[0.5,0,0,0,0],[0.5,1,0,0,0],[1,0.5,0,0,0]];shadow=1;opacity=30;textOpacity=30;labelBackgroundColor=none;" vertex="1" parent="1">
          <mxGeometry x="720" y="400" width="40" height="40" as="geometry" />
        </mxCell>
        <mxCell id="pbNWXzmvPmpZmjkabeOm-30" value="" style="edgeStyle=orthogonalEdgeStyle;rounded=1;orthogonalLoop=1;jettySize=auto;exitX=1;exitY=0.5;exitDx=0;exitDy=0;exitPerimeter=0;entryX=0;entryY=0.5;entryDx=0;entryDy=0;entryPerimeter=0;curved=0;opacity=30;" edge="1" parent="1" source="pbNWXzmvPmpZmjkabeOm-27" target="pbNWXzmvPmpZmjkabeOm-13">
          <mxGeometry relative="1" as="geometry">
            <Array as="points">
              <mxPoint x="150" y="400" />
              <mxPoint x="150" y="260" />
            </Array>
          </mxGeometry>
        </mxCell>
        <mxCell id="pbNWXzmvPmpZmjkabeOm-31" value="" style="edgeStyle=orthogonalEdgeStyle;curved=0;rounded=1;orthogonalLoop=1;jettySize=auto;exitX=1;exitY=0.5;exitDx=0;exitDy=0;exitPerimeter=0;entryX=0;entryY=0.5;entryDx=0;entryDy=0;entryPerimeter=0;opacity=30;strokeColor=default;align=center;verticalAlign=middle;fontFamily=Helvetica;fontSize=11;fontColor=default;labelBackgroundColor=default;endArrow=classic;" edge="1" parent="1" source="pbNWXzmvPmpZmjkabeOm-27" target="pbNWXzmvPmpZmjkabeOm-20">
          <mxGeometry relative="1" as="geometry" />
        </mxCell>
        <mxCell id="pbNWXzmvPmpZmjkabeOm-32" value="" style="edgeStyle=orthogonalEdgeStyle;curved=0;rounded=1;orthogonalLoop=1;jettySize=auto;exitX=1;exitY=0.5;exitDx=0;exitDy=0;exitPerimeter=0;entryX=0;entryY=0.5;entryDx=0;entryDy=0;entryPerimeter=0;opacity=30;strokeColor=default;align=center;verticalAlign=middle;fontFamily=Helvetica;fontSize=11;fontColor=default;labelBackgroundColor=default;endArrow=classic;" edge="1" parent="1" source="pbNWXzmvPmpZmjkabeOm-27" target="pbNWXzmvPmpZmjkabeOm-24">
          <mxGeometry relative="1" as="geometry" />
        </mxCell>
        <mxCell id="pbNWXzmvPmpZmjkabeOm-33" value="" style="edgeStyle=orthogonalEdgeStyle;curved=0;rounded=1;orthogonalLoop=1;jettySize=auto;exitX=1;exitY=0.5;exitDx=0;exitDy=0;exitPerimeter=0;entryX=0;entryY=0.5;entryDx=0;entryDy=0;entryPerimeter=0;opacity=30;strokeColor=default;align=center;verticalAlign=middle;fontFamily=Helvetica;fontSize=11;fontColor=default;labelBackgroundColor=default;endArrow=classic;" edge="1" parent="1" source="pbNWXzmvPmpZmjkabeOm-27" target="pbNWXzmvPmpZmjkabeOm-16">
          <mxGeometry relative="1" as="geometry" />
        </mxCell>
        <mxCell id="pbNWXzmvPmpZmjkabeOm-34" value="" style="edgeStyle=orthogonalEdgeStyle;curved=0;rounded=1;orthogonalLoop=1;jettySize=auto;exitX=1;exitY=0.5;exitDx=0;exitDy=0;exitPerimeter=0;entryX=0;entryY=0.5;entryDx=0;entryDy=0;entryPerimeter=0;strokeColor=default;align=center;verticalAlign=middle;fontFamily=Helvetica;fontSize=11;fontColor=default;labelBackgroundColor=default;endArrow=classic;strokeWidth=2;" edge="1" parent="1" source="pbNWXzmvPmpZmjkabeOm-27" target="pbNWXzmvPmpZmjkabeOm-6">
          <mxGeometry relative="1" as="geometry" />
        </mxCell>
      </root>
    </mxGraphModel>
  </diagram>
  <diagram id="Fgx48QwW9Wvc-T8OKOyw" name="Bracket Keywords">
    <mxGraphModel dx="1100" dy="713" grid="1" gridSize="10" guides="1" tooltips="1" connect="1" arrows="1" fold="1" page="1" pageScale="1" pageWidth="850" pageHeight="1100" math="0" shadow="0">
      <root>
        <mxCell id="0" />
        <mxCell id="1" parent="0" />
        <mxCell id="Bfd2cd10uijJG8domb2h-1" value="Transpile" style="rounded=1;whiteSpace=wrap;sketch=0;container=1;recursiveResize=0;verticalAlign=top;arcSize=6;fontStyle=1;autosize=0;points=[];absoluteArcSize=1;shadow=1;strokeColor=#001DBC;fillColor=#0050ef;fontColor=#ffffff;fontFamily=Helvetica;fontSize=11;" parent="1" vertex="1">
          <mxGeometry x="490" y="50" width="130" height="210" as="geometry">
            <mxRectangle x="-98" y="-1230" width="99" height="26" as="alternateBounds" />
          </mxGeometry>
        </mxCell>
        <mxCell id="Bfd2cd10uijJG8domb2h-2" value="ohmfn" style="rounded=1;whiteSpace=wrap;sketch=0;points=[[0,0.5,0,0,0],[1,0.5,0,0,0]];arcSize=50;fontFamily=Helvetica;fontSize=11;fontColor=default;fontStyle=0" parent="Bfd2cd10uijJG8domb2h-1" vertex="1">
          <mxGeometry x="-17" y="57.5" width="66" height="25" as="geometry" />
        </mxCell>
        <mxCell id="Bfd2cd10uijJG8domb2h-3" value="" style="rounded=1;whiteSpace=wrap;sketch=0;points=[[0,0.5,0,0,0],[1,0.5,0,0,0]];fillColor=#1ba1e2;fontColor=#ffffff;strokeColor=#006EAF;arcSize=50;fontFamily=Helvetica;fontSize=11;" parent="Bfd2cd10uijJG8domb2h-1" vertex="1">
          <mxGeometry x="100" y="27.5" width="35.25" height="25" as="geometry" />
        </mxCell>
        <mxCell id="Bfd2cd10uijJG8domb2h-4" value="✗" style="rounded=1;whiteSpace=wrap;sketch=0;points=[[0,0.5,0,0,0],[1,0.5,0,0,0]];fillColor=#1ba1e2;fontColor=#ffffff;strokeColor=#006EAF;arcSize=50;fontFamily=Helvetica;fontSize=11;textOpacity=30;" parent="Bfd2cd10uijJG8domb2h-1" vertex="1">
          <mxGeometry x="100" y="67.5" width="35.25" height="25" as="geometry" />
        </mxCell>
        <mxCell id="Bfd2cd10uijJG8domb2h-5" value="rwrfn" style="rounded=1;whiteSpace=wrap;sketch=0;points=[[0,0.5,0,0,0],[1,0.5,0,0,0]];arcSize=50;fontFamily=Helvetica;fontSize=11;fontColor=default;" parent="Bfd2cd10uijJG8domb2h-1" vertex="1">
          <mxGeometry x="-17" y="92.5" width="66" height="25" as="geometry" />
        </mxCell>
        <mxCell id="Bfd2cd10uijJG8domb2h-6" value="input" style="rounded=1;whiteSpace=wrap;sketch=0;points=[[0,0.5,0,0,0],[1,0.5,0,0,0]];arcSize=50;fontFamily=Helvetica;fontSize=11;fontColor=default;" parent="Bfd2cd10uijJG8domb2h-1" vertex="1">
          <mxGeometry x="-17" y="167.5" width="66" height="25" as="geometry" />
        </mxCell>
        <mxCell id="Bfd2cd10uijJG8domb2h-7" value="grammar name" style="rounded=1;whiteSpace=wrap;sketch=0;points=[[0,0.5,0,0,0],[1,0.5,0,0,0]];arcSize=50;fontFamily=Helvetica;fontSize=11;fontColor=default;" parent="Bfd2cd10uijJG8domb2h-1" vertex="1">
          <mxGeometry x="-16" y="27.5" width="66" height="25" as="geometry" />
        </mxCell>
        <mxCell id="Bfd2cd10uijJG8domb2h-8" value="rwrsupportfn" style="rounded=1;whiteSpace=wrap;sketch=0;points=[[0,0.5,0,0,0],[1,0.5,0,0,0]];arcSize=50;fontFamily=Helvetica;fontSize=11;fontColor=default;" parent="Bfd2cd10uijJG8domb2h-1" vertex="1">
          <mxGeometry x="-17" y="127.5" width="66" height="25" as="geometry" />
        </mxCell>
        <mxCell id="Bfd2cd10uijJG8domb2h-9" value="" style="edgeStyle=orthogonalEdgeStyle;shape=connector;rounded=1;jumpStyle=arc;orthogonalLoop=1;jettySize=auto;exitX=1;exitY=0.5;exitDx=0;exitDy=0;exitPerimeter=0;entryX=0;entryY=0.5;entryDx=0;entryDy=0;entryPerimeter=0;labelBackgroundColor=default;strokeColor=#666666;strokeWidth=2;fontFamily=Helvetica;fontSize=11;fontColor=default;endArrow=classic;fillColor=#f5f5f5;opacity=90;" parent="1" source="Bfd2cd10uijJG8domb2h-3" target="Bfd2cd10uijJG8domb2h-28" edge="1">
          <mxGeometry relative="1" as="geometry">
            <mxPoint x="740" y="90" as="targetPoint" />
          </mxGeometry>
        </mxCell>
        <mxCell id="Bfd2cd10uijJG8domb2h-10" value="" style="edgeStyle=orthogonalEdgeStyle;shape=connector;rounded=1;jumpStyle=arc;orthogonalLoop=1;jettySize=auto;exitX=1;exitY=0.5;exitDx=0;exitDy=0;exitPerimeter=0;entryX=0;entryY=0.5;entryDx=0;entryDy=0;entryPerimeter=0;labelBackgroundColor=default;strokeColor=#666666;strokeWidth=1;fontFamily=Helvetica;fontSize=11;fontColor=default;endArrow=classic;fillColor=#f5f5f5;opacity=90;" parent="1" source="Bfd2cd10uijJG8domb2h-4" target="Bfd2cd10uijJG8domb2h-29" edge="1">
          <mxGeometry relative="1" as="geometry">
            <mxPoint x="740" y="270" as="targetPoint" />
          </mxGeometry>
        </mxCell>
        <mxCell id="Bfd2cd10uijJG8domb2h-11" value="&#39;keywords" style="rounded=1;whiteSpace=wrap;sketch=0;container=1;recursiveResize=0;verticalAlign=middle;arcSize=6;fontStyle=1;autosize=0;points=[];absoluteArcSize=1;shadow=0;strokeColor=#6c8ebf;fillColor=#dae8fc;fontFamily=Helvetica;fontSize=11;gradientColor=#E6E6E6;" parent="1" vertex="1">
          <mxGeometry x="210" y="80" width="110" height="20" as="geometry">
            <mxRectangle x="-98" y="-1230" width="99" height="26" as="alternateBounds" />
          </mxGeometry>
        </mxCell>
        <mxCell id="Bfd2cd10uijJG8domb2h-12" value="" style="rounded=1;whiteSpace=wrap;sketch=0;points=[[0,0.5,0,0,0],[1,0.5,0,0,0]];arcSize=50;fontFamily=Helvetica;fontSize=11;fontColor=default;" parent="Bfd2cd10uijJG8domb2h-11" vertex="1">
          <mxGeometry x="100" y="3.75" width="20" height="12.5" as="geometry" />
        </mxCell>
        <mxCell id="Bfd2cd10uijJG8domb2h-13" value="" style="rounded=1;whiteSpace=wrap;sketch=0;points=[[0,0.5,0,0,0],[1,0.5,0,0,0]];arcSize=50;fontFamily=Helvetica;fontSize=11;fontColor=default;" parent="Bfd2cd10uijJG8domb2h-11" vertex="1">
          <mxGeometry x="-10" y="3.75" width="20" height="12.5" as="geometry" />
        </mxCell>
        <mxCell id="Bfd2cd10uijJG8domb2h-14" value="&#39;null.js" style="rounded=1;whiteSpace=wrap;sketch=0;container=1;recursiveResize=0;verticalAlign=middle;arcSize=6;fontStyle=1;autosize=0;points=[];absoluteArcSize=1;shadow=0;strokeColor=#6c8ebf;fillColor=#dae8fc;fontFamily=Helvetica;fontSize=11;gradientColor=#E6E6E6;" parent="1" vertex="1">
          <mxGeometry x="200" y="180" width="200" height="20" as="geometry">
            <mxRectangle x="-98" y="-1230" width="99" height="26" as="alternateBounds" />
          </mxGeometry>
        </mxCell>
        <mxCell id="Bfd2cd10uijJG8domb2h-15" value="" style="rounded=1;whiteSpace=wrap;sketch=0;points=[[0,0.5,0,0,0],[1,0.5,0,0,0]];arcSize=50;fontFamily=Helvetica;fontSize=11;fontColor=default;" parent="Bfd2cd10uijJG8domb2h-14" vertex="1">
          <mxGeometry x="190" y="3.75" width="20" height="12.5" as="geometry" />
        </mxCell>
        <mxCell id="Bfd2cd10uijJG8domb2h-16" value="" style="rounded=1;whiteSpace=wrap;sketch=0;points=[[0,0.5,0,0,0],[1,0.5,0,0,0]];arcSize=50;fontFamily=Helvetica;fontSize=11;fontColor=default;" parent="Bfd2cd10uijJG8domb2h-14" vertex="1">
          <mxGeometry x="-10" y="3.75" width="20" height="12.5" as="geometry" />
        </mxCell>
        <mxCell id="Bfd2cd10uijJG8domb2h-17" value="" style="edgeStyle=orthogonalEdgeStyle;shape=connector;rounded=1;orthogonalLoop=1;jettySize=auto;entryX=0;entryY=0.5;entryDx=0;entryDy=0;entryPerimeter=0;labelBackgroundColor=default;strokeColor=default;strokeWidth=2;align=center;verticalAlign=middle;fontFamily=Helvetica;fontSize=11;fontColor=default;endArrow=classic;" parent="1" source="Bfd2cd10uijJG8domb2h-15" target="Bfd2cd10uijJG8domb2h-8" edge="1">
          <mxGeometry relative="1" as="geometry" />
        </mxCell>
        <mxCell id="Bfd2cd10uijJG8domb2h-18" value="&#39;keywords.ohm" style="rounded=1;whiteSpace=wrap;sketch=0;container=1;recursiveResize=0;verticalAlign=middle;arcSize=6;fontStyle=1;autosize=0;points=[];absoluteArcSize=1;shadow=0;strokeColor=#6c8ebf;fillColor=#dae8fc;fontFamily=Helvetica;fontSize=11;gradientColor=#E6E6E6;" parent="1" vertex="1">
          <mxGeometry x="200" y="110" width="200" height="20" as="geometry">
            <mxRectangle x="-98" y="-1230" width="99" height="26" as="alternateBounds" />
          </mxGeometry>
        </mxCell>
        <mxCell id="Bfd2cd10uijJG8domb2h-19" value="" style="rounded=1;whiteSpace=wrap;sketch=0;points=[[0,0.5,0,0,0],[1,0.5,0,0,0]];arcSize=50;fontFamily=Helvetica;fontSize=11;fontColor=default;" parent="Bfd2cd10uijJG8domb2h-18" vertex="1">
          <mxGeometry x="190" y="3.75" width="20" height="12.5" as="geometry" />
        </mxCell>
        <mxCell id="Bfd2cd10uijJG8domb2h-20" value="" style="rounded=1;whiteSpace=wrap;sketch=0;points=[[0,0.5,0,0,0],[1,0.5,0,0,0]];arcSize=50;fontFamily=Helvetica;fontSize=11;fontColor=default;" parent="Bfd2cd10uijJG8domb2h-18" vertex="1">
          <mxGeometry x="-10" y="3.75" width="20" height="12.5" as="geometry" />
        </mxCell>
        <mxCell id="Bfd2cd10uijJG8domb2h-21" value="" style="edgeStyle=orthogonalEdgeStyle;shape=connector;rounded=1;orthogonalLoop=1;jettySize=auto;exitX=1;exitY=0.5;exitDx=0;exitDy=0;exitPerimeter=0;entryX=0;entryY=0.5;entryDx=0;entryDy=0;entryPerimeter=0;labelBackgroundColor=default;strokeColor=default;strokeWidth=2;align=center;verticalAlign=middle;fontFamily=Helvetica;fontSize=11;fontColor=default;endArrow=classic;" parent="1" source="Bfd2cd10uijJG8domb2h-19" target="Bfd2cd10uijJG8domb2h-2" edge="1">
          <mxGeometry relative="1" as="geometry">
            <Array as="points">
              <mxPoint x="440" y="120" />
              <mxPoint x="440" y="120" />
            </Array>
          </mxGeometry>
        </mxCell>
        <mxCell id="Bfd2cd10uijJG8domb2h-22" value="&#39;keywords.rwr" style="rounded=1;whiteSpace=wrap;sketch=0;container=1;recursiveResize=0;verticalAlign=middle;arcSize=6;fontStyle=1;autosize=0;points=[];absoluteArcSize=1;shadow=0;strokeColor=#6c8ebf;fillColor=#dae8fc;fontFamily=Helvetica;fontSize=11;gradientColor=#E6E6E6;" parent="1" vertex="1">
          <mxGeometry x="200" y="145" width="200" height="20" as="geometry">
            <mxRectangle x="-98" y="-1230" width="99" height="26" as="alternateBounds" />
          </mxGeometry>
        </mxCell>
        <mxCell id="Bfd2cd10uijJG8domb2h-23" value="" style="rounded=1;whiteSpace=wrap;sketch=0;points=[[0,0.5,0,0,0],[1,0.5,0,0,0]];arcSize=50;fontFamily=Helvetica;fontSize=11;fontColor=default;" parent="Bfd2cd10uijJG8domb2h-22" vertex="1">
          <mxGeometry x="190" y="3.75" width="20" height="12.5" as="geometry" />
        </mxCell>
        <mxCell id="Bfd2cd10uijJG8domb2h-24" value="" style="rounded=1;whiteSpace=wrap;sketch=0;points=[[0,0.5,0,0,0],[1,0.5,0,0,0]];arcSize=50;fontFamily=Helvetica;fontSize=11;fontColor=default;" parent="Bfd2cd10uijJG8domb2h-22" vertex="1">
          <mxGeometry x="-10" y="3.75" width="20" height="12.5" as="geometry" />
        </mxCell>
        <mxCell id="Bfd2cd10uijJG8domb2h-25" value="" style="edgeStyle=orthogonalEdgeStyle;shape=connector;rounded=1;orthogonalLoop=1;jettySize=auto;labelBackgroundColor=default;strokeColor=default;strokeWidth=2;align=center;verticalAlign=middle;fontFamily=Helvetica;fontSize=11;fontColor=default;endArrow=classic;" parent="1" source="Bfd2cd10uijJG8domb2h-23" target="Bfd2cd10uijJG8domb2h-5" edge="1">
          <mxGeometry relative="1" as="geometry" />
        </mxCell>
        <mxCell id="Bfd2cd10uijJG8domb2h-26" value="" style="edgeStyle=orthogonalEdgeStyle;shape=connector;rounded=1;orthogonalLoop=1;jettySize=auto;exitX=1;exitY=0.5;exitDx=0;exitDy=0;exitPerimeter=0;entryX=0;entryY=0.5;entryDx=0;entryDy=0;entryPerimeter=0;labelBackgroundColor=default;strokeColor=default;strokeWidth=2;align=center;verticalAlign=middle;fontFamily=Helvetica;fontSize=11;fontColor=default;endArrow=classic;" parent="1" source="Bfd2cd10uijJG8domb2h-12" target="Bfd2cd10uijJG8domb2h-7" edge="1">
          <mxGeometry relative="1" as="geometry" />
        </mxCell>
        <mxCell id="Bfd2cd10uijJG8domb2h-27" value="" style="rhombus;whiteSpace=wrap;rounded=1;fontStyle=1;glass=0;sketch=0;fontSize=12;points=[[0,0.5,0,0,0],[0.5,0,0,0,0],[0.5,1,0,0,0],[1,0.5,0,0,0]];shadow=1;fontFamily=Helvetica;fontColor=default;labelBackgroundColor=none;" parent="1" vertex="1">
          <mxGeometry x="50" y="210" width="40" height="40" as="geometry" />
        </mxCell>
        <mxCell id="Bfd2cd10uijJG8domb2h-28" value="" style="rhombus;whiteSpace=wrap;rounded=1;fontStyle=1;glass=0;sketch=0;fontSize=12;points=[[0,0.5,0,0,0],[0.5,0,0,0,0],[0.5,1,0,0,0],[1,0.5,0,0,0]];shadow=1;fillColor=#0050ef;fontColor=#ffffff;strokeColor=#001DBC;fontFamily=Helvetica;labelBackgroundColor=none;" parent="1" vertex="1">
          <mxGeometry x="710" y="70" width="40" height="40" as="geometry" />
        </mxCell>
        <mxCell id="Bfd2cd10uijJG8domb2h-29" value="✗" style="rhombus;whiteSpace=wrap;rounded=1;fillColor=#0050ef;fontColor=#ffffff;strokeColor=#001DBC;fontStyle=1;glass=0;sketch=0;fontSize=12;points=[[0,0.5,0,0,0],[0.5,0,0,0,0],[0.5,1,0,0,0],[1,0.5,0,0,0]];shadow=1;opacity=30;textOpacity=30;labelBackgroundColor=none;" parent="1" vertex="1">
          <mxGeometry x="710" y="230" width="40" height="40" as="geometry" />
        </mxCell>
        <mxCell id="Bfd2cd10uijJG8domb2h-30" value="" style="edgeStyle=orthogonalEdgeStyle;rounded=1;orthogonalLoop=1;jettySize=auto;exitX=1;exitY=0.5;exitDx=0;exitDy=0;exitPerimeter=0;entryX=0;entryY=0.5;entryDx=0;entryDy=0;entryPerimeter=0;curved=0;opacity=30;" parent="1" source="Bfd2cd10uijJG8domb2h-27" target="Bfd2cd10uijJG8domb2h-13" edge="1">
          <mxGeometry relative="1" as="geometry">
            <Array as="points">
              <mxPoint x="140" y="230" />
              <mxPoint x="140" y="90" />
            </Array>
          </mxGeometry>
        </mxCell>
        <mxCell id="Bfd2cd10uijJG8domb2h-31" value="" style="edgeStyle=orthogonalEdgeStyle;curved=0;rounded=1;orthogonalLoop=1;jettySize=auto;exitX=1;exitY=0.5;exitDx=0;exitDy=0;exitPerimeter=0;entryX=0;entryY=0.5;entryDx=0;entryDy=0;entryPerimeter=0;opacity=30;strokeColor=default;align=center;verticalAlign=middle;fontFamily=Helvetica;fontSize=11;fontColor=default;labelBackgroundColor=default;endArrow=classic;" parent="1" source="Bfd2cd10uijJG8domb2h-27" target="Bfd2cd10uijJG8domb2h-20" edge="1">
          <mxGeometry relative="1" as="geometry" />
        </mxCell>
        <mxCell id="Bfd2cd10uijJG8domb2h-32" value="" style="edgeStyle=orthogonalEdgeStyle;curved=0;rounded=1;orthogonalLoop=1;jettySize=auto;exitX=1;exitY=0.5;exitDx=0;exitDy=0;exitPerimeter=0;entryX=0;entryY=0.5;entryDx=0;entryDy=0;entryPerimeter=0;opacity=30;strokeColor=default;align=center;verticalAlign=middle;fontFamily=Helvetica;fontSize=11;fontColor=default;labelBackgroundColor=default;endArrow=classic;" parent="1" source="Bfd2cd10uijJG8domb2h-27" target="Bfd2cd10uijJG8domb2h-24" edge="1">
          <mxGeometry relative="1" as="geometry" />
        </mxCell>
        <mxCell id="Bfd2cd10uijJG8domb2h-33" value="" style="edgeStyle=orthogonalEdgeStyle;curved=0;rounded=1;orthogonalLoop=1;jettySize=auto;exitX=1;exitY=0.5;exitDx=0;exitDy=0;exitPerimeter=0;entryX=0;entryY=0.5;entryDx=0;entryDy=0;entryPerimeter=0;opacity=30;strokeColor=default;align=center;verticalAlign=middle;fontFamily=Helvetica;fontSize=11;fontColor=default;labelBackgroundColor=default;endArrow=classic;" parent="1" source="Bfd2cd10uijJG8domb2h-27" target="Bfd2cd10uijJG8domb2h-16" edge="1">
          <mxGeometry relative="1" as="geometry" />
        </mxCell>
        <mxCell id="Bfd2cd10uijJG8domb2h-34" value="" style="edgeStyle=orthogonalEdgeStyle;curved=0;rounded=1;orthogonalLoop=1;jettySize=auto;exitX=1;exitY=0.5;exitDx=0;exitDy=0;exitPerimeter=0;entryX=0;entryY=0.5;entryDx=0;entryDy=0;entryPerimeter=0;strokeColor=default;align=center;verticalAlign=middle;fontFamily=Helvetica;fontSize=11;fontColor=default;labelBackgroundColor=default;endArrow=classic;strokeWidth=2;" parent="1" source="Bfd2cd10uijJG8domb2h-27" target="Bfd2cd10uijJG8domb2h-6" edge="1">
          <mxGeometry relative="1" as="geometry" />
        </mxCell>
      </root>
    </mxGraphModel>
  </diagram>
  <diagram id="XWs8SAM3W_0G3IAOpnNy" name="Common Lisp">
    <mxGraphModel dx="1100" dy="713" grid="1" gridSize="10" guides="1" tooltips="1" connect="1" arrows="1" fold="1" page="1" pageScale="1" pageWidth="850" pageHeight="1100" math="0" shadow="0">
      <root>
        <mxCell id="0" />
        <mxCell id="1" parent="0" />
        <mxCell id="HQtDxS7qSSfbbWXlbReH-1" value="Transpile" style="rounded=1;whiteSpace=wrap;sketch=0;container=1;recursiveResize=0;verticalAlign=top;arcSize=6;fontStyle=1;autosize=0;points=[];absoluteArcSize=1;shadow=1;strokeColor=#001DBC;fillColor=#0050ef;fontColor=#ffffff;fontFamily=Helvetica;fontSize=11;" vertex="1" parent="1">
          <mxGeometry x="500" y="220" width="130" height="210" as="geometry">
            <mxRectangle x="-98" y="-1230" width="99" height="26" as="alternateBounds" />
          </mxGeometry>
        </mxCell>
        <mxCell id="HQtDxS7qSSfbbWXlbReH-2" value="ohmfn" style="rounded=1;whiteSpace=wrap;sketch=0;points=[[0,0.5,0,0,0],[1,0.5,0,0,0]];arcSize=50;fontFamily=Helvetica;fontSize=11;fontColor=default;fontStyle=0" vertex="1" parent="HQtDxS7qSSfbbWXlbReH-1">
          <mxGeometry x="-17" y="57.5" width="66" height="25" as="geometry" />
        </mxCell>
        <mxCell id="HQtDxS7qSSfbbWXlbReH-3" value="" style="rounded=1;whiteSpace=wrap;sketch=0;points=[[0,0.5,0,0,0],[1,0.5,0,0,0]];fillColor=#1ba1e2;fontColor=#ffffff;strokeColor=#006EAF;arcSize=50;fontFamily=Helvetica;fontSize=11;" vertex="1" parent="HQtDxS7qSSfbbWXlbReH-1">
          <mxGeometry x="100" y="27.5" width="35.25" height="25" as="geometry" />
        </mxCell>
        <mxCell id="HQtDxS7qSSfbbWXlbReH-4" value="✗" style="rounded=1;whiteSpace=wrap;sketch=0;points=[[0,0.5,0,0,0],[1,0.5,0,0,0]];fillColor=#1ba1e2;fontColor=#ffffff;strokeColor=#006EAF;arcSize=50;fontFamily=Helvetica;fontSize=11;textOpacity=30;" vertex="1" parent="HQtDxS7qSSfbbWXlbReH-1">
          <mxGeometry x="100" y="67.5" width="35.25" height="25" as="geometry" />
        </mxCell>
        <mxCell id="HQtDxS7qSSfbbWXlbReH-5" value="rwrfn" style="rounded=1;whiteSpace=wrap;sketch=0;points=[[0,0.5,0,0,0],[1,0.5,0,0,0]];arcSize=50;fontFamily=Helvetica;fontSize=11;fontColor=default;" vertex="1" parent="HQtDxS7qSSfbbWXlbReH-1">
          <mxGeometry x="-17" y="92.5" width="66" height="25" as="geometry" />
        </mxCell>
        <mxCell id="HQtDxS7qSSfbbWXlbReH-6" value="input" style="rounded=1;whiteSpace=wrap;sketch=0;points=[[0,0.5,0,0,0],[1,0.5,0,0,0]];arcSize=50;fontFamily=Helvetica;fontSize=11;fontColor=default;" vertex="1" parent="HQtDxS7qSSfbbWXlbReH-1">
          <mxGeometry x="-17" y="167.5" width="66" height="25" as="geometry" />
        </mxCell>
        <mxCell id="HQtDxS7qSSfbbWXlbReH-7" value="grammar name" style="rounded=1;whiteSpace=wrap;sketch=0;points=[[0,0.5,0,0,0],[1,0.5,0,0,0]];arcSize=50;fontFamily=Helvetica;fontSize=11;fontColor=default;" vertex="1" parent="HQtDxS7qSSfbbWXlbReH-1">
          <mxGeometry x="-16" y="27.5" width="66" height="25" as="geometry" />
        </mxCell>
        <mxCell id="HQtDxS7qSSfbbWXlbReH-8" value="rwrsupportfn" style="rounded=1;whiteSpace=wrap;sketch=0;points=[[0,0.5,0,0,0],[1,0.5,0,0,0]];arcSize=50;fontFamily=Helvetica;fontSize=11;fontColor=default;" vertex="1" parent="HQtDxS7qSSfbbWXlbReH-1">
          <mxGeometry x="-17" y="127.5" width="66" height="25" as="geometry" />
        </mxCell>
        <mxCell id="HQtDxS7qSSfbbWXlbReH-9" value="" style="edgeStyle=orthogonalEdgeStyle;shape=connector;rounded=1;jumpStyle=arc;orthogonalLoop=1;jettySize=auto;exitX=1;exitY=0.5;exitDx=0;exitDy=0;exitPerimeter=0;entryX=0;entryY=0.5;entryDx=0;entryDy=0;entryPerimeter=0;labelBackgroundColor=default;strokeColor=#666666;strokeWidth=2;fontFamily=Helvetica;fontSize=11;fontColor=default;endArrow=classic;fillColor=#f5f5f5;opacity=90;" edge="1" parent="1" source="HQtDxS7qSSfbbWXlbReH-3" target="HQtDxS7qSSfbbWXlbReH-28">
          <mxGeometry relative="1" as="geometry">
            <mxPoint x="750" y="260" as="targetPoint" />
          </mxGeometry>
        </mxCell>
        <mxCell id="HQtDxS7qSSfbbWXlbReH-10" value="" style="edgeStyle=orthogonalEdgeStyle;shape=connector;rounded=1;jumpStyle=arc;orthogonalLoop=1;jettySize=auto;exitX=1;exitY=0.5;exitDx=0;exitDy=0;exitPerimeter=0;entryX=0;entryY=0.5;entryDx=0;entryDy=0;entryPerimeter=0;labelBackgroundColor=default;strokeColor=#666666;strokeWidth=1;fontFamily=Helvetica;fontSize=11;fontColor=default;endArrow=classic;fillColor=#f5f5f5;opacity=90;" edge="1" parent="1" source="HQtDxS7qSSfbbWXlbReH-4" target="HQtDxS7qSSfbbWXlbReH-29">
          <mxGeometry relative="1" as="geometry">
            <mxPoint x="750" y="440" as="targetPoint" />
          </mxGeometry>
        </mxCell>
        <mxCell id="HQtDxS7qSSfbbWXlbReH-11" value="&#39;nanolisp" style="rounded=1;whiteSpace=wrap;sketch=0;container=1;recursiveResize=0;verticalAlign=middle;arcSize=6;fontStyle=1;autosize=0;points=[];absoluteArcSize=1;shadow=0;strokeColor=#6c8ebf;fillColor=#dae8fc;fontFamily=Helvetica;fontSize=11;gradientColor=#E6E6E6;" vertex="1" parent="1">
          <mxGeometry x="220" y="250" width="110" height="20" as="geometry">
            <mxRectangle x="-98" y="-1230" width="99" height="26" as="alternateBounds" />
          </mxGeometry>
        </mxCell>
        <mxCell id="HQtDxS7qSSfbbWXlbReH-12" value="" style="rounded=1;whiteSpace=wrap;sketch=0;points=[[0,0.5,0,0,0],[1,0.5,0,0,0]];arcSize=50;fontFamily=Helvetica;fontSize=11;fontColor=default;" vertex="1" parent="HQtDxS7qSSfbbWXlbReH-11">
          <mxGeometry x="100" y="3.75" width="20" height="12.5" as="geometry" />
        </mxCell>
        <mxCell id="HQtDxS7qSSfbbWXlbReH-13" value="" style="rounded=1;whiteSpace=wrap;sketch=0;points=[[0,0.5,0,0,0],[1,0.5,0,0,0]];arcSize=50;fontFamily=Helvetica;fontSize=11;fontColor=default;" vertex="1" parent="HQtDxS7qSSfbbWXlbReH-11">
          <mxGeometry x="-10" y="3.75" width="20" height="12.5" as="geometry" />
        </mxCell>
        <mxCell id="HQtDxS7qSSfbbWXlbReH-14" value="&#39;null.js" style="rounded=1;whiteSpace=wrap;sketch=0;container=1;recursiveResize=0;verticalAlign=middle;arcSize=6;fontStyle=1;autosize=0;points=[];absoluteArcSize=1;shadow=0;strokeColor=#6c8ebf;fillColor=#dae8fc;fontFamily=Helvetica;fontSize=11;gradientColor=#E6E6E6;" vertex="1" parent="1">
          <mxGeometry x="210" y="350" width="200" height="20" as="geometry">
            <mxRectangle x="-98" y="-1230" width="99" height="26" as="alternateBounds" />
          </mxGeometry>
        </mxCell>
        <mxCell id="HQtDxS7qSSfbbWXlbReH-15" value="" style="rounded=1;whiteSpace=wrap;sketch=0;points=[[0,0.5,0,0,0],[1,0.5,0,0,0]];arcSize=50;fontFamily=Helvetica;fontSize=11;fontColor=default;" vertex="1" parent="HQtDxS7qSSfbbWXlbReH-14">
          <mxGeometry x="190" y="3.75" width="20" height="12.5" as="geometry" />
        </mxCell>
        <mxCell id="HQtDxS7qSSfbbWXlbReH-16" value="" style="rounded=1;whiteSpace=wrap;sketch=0;points=[[0,0.5,0,0,0],[1,0.5,0,0,0]];arcSize=50;fontFamily=Helvetica;fontSize=11;fontColor=default;" vertex="1" parent="HQtDxS7qSSfbbWXlbReH-14">
          <mxGeometry x="-10" y="3.75" width="20" height="12.5" as="geometry" />
        </mxCell>
        <mxCell id="HQtDxS7qSSfbbWXlbReH-17" value="" style="edgeStyle=orthogonalEdgeStyle;shape=connector;rounded=1;orthogonalLoop=1;jettySize=auto;entryX=0;entryY=0.5;entryDx=0;entryDy=0;entryPerimeter=0;labelBackgroundColor=default;strokeColor=default;strokeWidth=2;align=center;verticalAlign=middle;fontFamily=Helvetica;fontSize=11;fontColor=default;endArrow=classic;" edge="1" parent="1" source="HQtDxS7qSSfbbWXlbReH-15" target="HQtDxS7qSSfbbWXlbReH-8">
          <mxGeometry relative="1" as="geometry" />
        </mxCell>
        <mxCell id="HQtDxS7qSSfbbWXlbReH-21" value="" style="edgeStyle=orthogonalEdgeStyle;shape=connector;rounded=1;orthogonalLoop=1;jettySize=auto;exitX=1;exitY=0.5;exitDx=0;exitDy=0;exitPerimeter=0;entryX=0;entryY=0.5;entryDx=0;entryDy=0;entryPerimeter=0;labelBackgroundColor=default;strokeColor=default;strokeWidth=2;align=center;verticalAlign=middle;fontFamily=Helvetica;fontSize=11;fontColor=default;endArrow=classic;" edge="1" parent="1" source="HQtDxS7qSSfbbWXlbReH-35" target="HQtDxS7qSSfbbWXlbReH-2">
          <mxGeometry relative="1" as="geometry">
            <Array as="points" />
            <mxPoint x="420" y="290" as="sourcePoint" />
          </mxGeometry>
        </mxCell>
        <mxCell id="HQtDxS7qSSfbbWXlbReH-22" value="&#39;nanolisp-cl.rwr" style="rounded=1;whiteSpace=wrap;sketch=0;container=1;recursiveResize=0;verticalAlign=middle;arcSize=6;fontStyle=1;autosize=0;points=[];absoluteArcSize=1;shadow=0;strokeColor=#6c8ebf;fillColor=#dae8fc;fontFamily=Helvetica;fontSize=11;gradientColor=#E6E6E6;" vertex="1" parent="1">
          <mxGeometry x="210" y="315" width="200" height="20" as="geometry">
            <mxRectangle x="-98" y="-1230" width="99" height="26" as="alternateBounds" />
          </mxGeometry>
        </mxCell>
        <mxCell id="HQtDxS7qSSfbbWXlbReH-23" value="" style="rounded=1;whiteSpace=wrap;sketch=0;points=[[0,0.5,0,0,0],[1,0.5,0,0,0]];arcSize=50;fontFamily=Helvetica;fontSize=11;fontColor=default;" vertex="1" parent="HQtDxS7qSSfbbWXlbReH-22">
          <mxGeometry x="190" y="3.75" width="20" height="12.5" as="geometry" />
        </mxCell>
        <mxCell id="HQtDxS7qSSfbbWXlbReH-24" value="" style="rounded=1;whiteSpace=wrap;sketch=0;points=[[0,0.5,0,0,0],[1,0.5,0,0,0]];arcSize=50;fontFamily=Helvetica;fontSize=11;fontColor=default;" vertex="1" parent="HQtDxS7qSSfbbWXlbReH-22">
          <mxGeometry x="-10" y="3.75" width="20" height="12.5" as="geometry" />
        </mxCell>
        <mxCell id="HQtDxS7qSSfbbWXlbReH-25" value="" style="edgeStyle=orthogonalEdgeStyle;shape=connector;rounded=1;orthogonalLoop=1;jettySize=auto;labelBackgroundColor=default;strokeColor=default;strokeWidth=2;align=center;verticalAlign=middle;fontFamily=Helvetica;fontSize=11;fontColor=default;endArrow=classic;" edge="1" parent="1" source="HQtDxS7qSSfbbWXlbReH-23" target="HQtDxS7qSSfbbWXlbReH-5">
          <mxGeometry relative="1" as="geometry" />
        </mxCell>
        <mxCell id="HQtDxS7qSSfbbWXlbReH-26" value="" style="edgeStyle=orthogonalEdgeStyle;shape=connector;rounded=1;orthogonalLoop=1;jettySize=auto;exitX=1;exitY=0.5;exitDx=0;exitDy=0;exitPerimeter=0;entryX=0;entryY=0.5;entryDx=0;entryDy=0;entryPerimeter=0;labelBackgroundColor=default;strokeColor=default;strokeWidth=2;align=center;verticalAlign=middle;fontFamily=Helvetica;fontSize=11;fontColor=default;endArrow=classic;" edge="1" parent="1" source="HQtDxS7qSSfbbWXlbReH-12" target="HQtDxS7qSSfbbWXlbReH-7">
          <mxGeometry relative="1" as="geometry" />
        </mxCell>
        <mxCell id="HQtDxS7qSSfbbWXlbReH-27" value="" style="rhombus;whiteSpace=wrap;rounded=1;fontStyle=1;glass=0;sketch=0;fontSize=12;points=[[0,0.5,0,0,0],[0.5,0,0,0,0],[0.5,1,0,0,0],[1,0.5,0,0,0]];shadow=1;fontFamily=Helvetica;fontColor=default;labelBackgroundColor=none;" vertex="1" parent="1">
          <mxGeometry x="60" y="380" width="40" height="40" as="geometry" />
        </mxCell>
        <mxCell id="HQtDxS7qSSfbbWXlbReH-28" value="" style="rhombus;whiteSpace=wrap;rounded=1;fontStyle=1;glass=0;sketch=0;fontSize=12;points=[[0,0.5,0,0,0],[0.5,0,0,0,0],[0.5,1,0,0,0],[1,0.5,0,0,0]];shadow=1;fillColor=#0050ef;fontColor=#ffffff;strokeColor=#001DBC;fontFamily=Helvetica;labelBackgroundColor=none;" vertex="1" parent="1">
          <mxGeometry x="720" y="240" width="40" height="40" as="geometry" />
        </mxCell>
        <mxCell id="HQtDxS7qSSfbbWXlbReH-29" value="✗" style="rhombus;whiteSpace=wrap;rounded=1;fillColor=#0050ef;fontColor=#ffffff;strokeColor=#001DBC;fontStyle=1;glass=0;sketch=0;fontSize=12;points=[[0,0.5,0,0,0],[0.5,0,0,0,0],[0.5,1,0,0,0],[1,0.5,0,0,0]];shadow=1;opacity=30;textOpacity=30;labelBackgroundColor=none;" vertex="1" parent="1">
          <mxGeometry x="720" y="400" width="40" height="40" as="geometry" />
        </mxCell>
        <mxCell id="HQtDxS7qSSfbbWXlbReH-30" value="" style="edgeStyle=orthogonalEdgeStyle;rounded=1;orthogonalLoop=1;jettySize=auto;exitX=1;exitY=0.5;exitDx=0;exitDy=0;exitPerimeter=0;entryX=0;entryY=0.5;entryDx=0;entryDy=0;entryPerimeter=0;curved=0;opacity=30;" edge="1" parent="1" source="HQtDxS7qSSfbbWXlbReH-27" target="HQtDxS7qSSfbbWXlbReH-13">
          <mxGeometry relative="1" as="geometry">
            <Array as="points">
              <mxPoint x="150" y="400" />
              <mxPoint x="150" y="260" />
            </Array>
          </mxGeometry>
        </mxCell>
        <mxCell id="HQtDxS7qSSfbbWXlbReH-32" value="" style="edgeStyle=orthogonalEdgeStyle;curved=0;rounded=1;orthogonalLoop=1;jettySize=auto;exitX=1;exitY=0.5;exitDx=0;exitDy=0;exitPerimeter=0;entryX=0;entryY=0.5;entryDx=0;entryDy=0;entryPerimeter=0;opacity=30;strokeColor=default;align=center;verticalAlign=middle;fontFamily=Helvetica;fontSize=11;fontColor=default;labelBackgroundColor=default;endArrow=classic;" edge="1" parent="1" source="HQtDxS7qSSfbbWXlbReH-27" target="HQtDxS7qSSfbbWXlbReH-24">
          <mxGeometry relative="1" as="geometry" />
        </mxCell>
        <mxCell id="HQtDxS7qSSfbbWXlbReH-33" value="" style="edgeStyle=orthogonalEdgeStyle;curved=0;rounded=1;orthogonalLoop=1;jettySize=auto;exitX=1;exitY=0.5;exitDx=0;exitDy=0;exitPerimeter=0;entryX=0;entryY=0.5;entryDx=0;entryDy=0;entryPerimeter=0;opacity=30;strokeColor=default;align=center;verticalAlign=middle;fontFamily=Helvetica;fontSize=11;fontColor=default;labelBackgroundColor=default;endArrow=classic;" edge="1" parent="1" source="HQtDxS7qSSfbbWXlbReH-27" target="HQtDxS7qSSfbbWXlbReH-16">
          <mxGeometry relative="1" as="geometry" />
        </mxCell>
        <mxCell id="HQtDxS7qSSfbbWXlbReH-34" value="" style="edgeStyle=orthogonalEdgeStyle;curved=0;rounded=1;orthogonalLoop=1;jettySize=auto;exitX=1;exitY=0.5;exitDx=0;exitDy=0;exitPerimeter=0;entryX=0;entryY=0.5;entryDx=0;entryDy=0;entryPerimeter=0;strokeColor=default;align=center;verticalAlign=middle;fontFamily=Helvetica;fontSize=11;fontColor=default;labelBackgroundColor=default;endArrow=classic;strokeWidth=2;" edge="1" parent="1" source="HQtDxS7qSSfbbWXlbReH-27" target="HQtDxS7qSSfbbWXlbReH-6">
          <mxGeometry relative="1" as="geometry" />
        </mxCell>
        <mxCell id="HQtDxS7qSSfbbWXlbReH-35" value="grammar" style="rhombus;whiteSpace=wrap;rounded=1;fontStyle=1;glass=0;sketch=0;fontSize=12;points=[[0,0.5,0,0,0],[0.5,0,0,0,0],[0.5,1,0,0,0],[1,0.5,0,0,0]];shadow=1;fontFamily=Helvetica;fontColor=default;labelBackgroundColor=none;" vertex="1" parent="1">
          <mxGeometry x="60" y="270" width="40" height="40" as="geometry" />
        </mxCell>
      </root>
    </mxGraphModel>
  </diagram>
</mxfile>
